<svg width="150" height="150" viewBox="0 0 150 150" fill="none" xmlns="http://www.w3.org/2000/svg">
<path d="M113.47 61.8964L113.47 61.8955C113.471 56.7503 112.444 51.6567 110.447 46.9145C108.451 42.1723 105.527 37.8773 101.846 34.2821C98.165 30.6869 93.8023 27.8642 89.0145 25.9801C84.2266 24.096 79.1103 23.1884 73.9666 23.3109L113.47 61.8964ZM113.47 61.8964C113.484 67.7432 112.163 73.516 109.607 78.7745C107.051 84.0327 103.328 88.6377 98.722 92.2384C97.5546 93.1359 96.608 94.2886 95.9548 95.6083C95.3014 96.9283 94.9588 98.3804 94.9533 99.8533V99.8544M113.47 61.8964L94.9533 99.8544M94.9533 99.8544V102.632C94.9533 104.026 94.3997 105.362 93.4142 106.348C92.4287 107.333 91.0921 107.887 89.6984 107.887H60.072C58.6783 107.887 57.3417 107.333 56.3562 106.348C55.3707 105.362 54.8171 104.026 54.8171 102.632V99.8544C54.8165 98.3954 54.4821 96.9559 53.8392 95.6462C53.1965 94.3367 52.2625 93.1916 51.1088 92.2988C46.5121 88.7205 42.7899 84.143 40.2243 78.9131C37.6586 73.6831 36.3169 67.9378 36.3006 62.1124L36.3006 62.1115M94.9533 99.8544L36.3006 62.1115M36.3006 62.1115C36.1858 41.2263 53.0769 23.8116 73.9665 23.3109L36.3006 62.1115ZM94.9533 121.148C94.9533 121.56 94.7898 121.955 94.4988 122.246C94.2079 122.537 93.8132 122.7 93.4017 122.7H56.3687C55.9572 122.7 55.5625 122.537 55.2715 122.246C54.9805 121.955 54.8171 121.56 54.8171 121.148C54.8171 120.737 54.9805 120.342 55.2715 120.051C55.5625 119.76 55.9572 119.597 56.3687 119.597H93.4017C93.8132 119.597 94.2079 119.76 94.4988 120.051C94.7898 120.342 94.9533 120.737 94.9533 121.148Z" stroke="white" stroke-width="0.6"/>
<path d="M113.47 61.8964L113.47 61.8955C113.471 56.7503 112.444 51.6567 110.447 46.9145C108.451 42.1723 105.527 37.8773 101.846 34.2821C98.165 30.6869 93.8023 27.8642 89.0145 25.9801C84.2266 24.096 79.1103 23.1884 73.9666 23.3109L113.47 61.8964ZM113.47 61.8964C113.484 67.7432 112.163 73.516 109.607 78.7745C107.051 84.0327 103.328 88.6377 98.722 92.2384C97.5546 93.1359 96.608 94.2886 95.9548 95.6083C95.3014 96.9283 94.9588 98.3804 94.9533 99.8533V99.8544M113.47 61.8964L94.9533 99.8544M94.9533 99.8544V102.632C94.9533 104.026 94.3997 105.362 93.4142 106.348C92.4287 107.333 91.0921 107.887 89.6984 107.887H60.072C58.6783 107.887 57.3417 107.333 56.3562 106.348C55.3707 105.362 54.8171 104.026 54.8171 102.632V99.8544C54.8165 98.3954 54.4821 96.9559 53.8392 95.6462C53.1965 94.3367 52.2625 93.1916 51.1088 92.2988C46.5121 88.7205 42.7899 84.143 40.2243 78.9131C37.6586 73.6831 36.3169 67.9378 36.3006 62.1124L36.3006 62.1115M94.9533 99.8544L36.3006 62.1115M36.3006 62.1115C36.1858 41.2263 53.0769 23.8116 73.9665 23.3109L36.3006 62.1115ZM94.9533 121.148C94.9533 121.56 94.7898 121.955 94.4988 122.246C94.2079 122.537 93.8132 122.7 93.4017 122.7H56.3687C55.9572 122.7 55.5625 122.537 55.2715 122.246C54.9805 121.955 54.8171 121.56 54.8171 121.148C54.8171 120.737 54.9805 120.342 55.2715 120.051C55.5625 119.76 55.9572 119.597 56.3687 119.597H93.4017C93.8132 119.597 94.2079 119.76 94.4988 120.051C94.7898 120.342 94.9533 120.737 94.9533 121.148Z" stroke="url(#paint0_linear_1947_2728)" stroke-width="0.6"/>
<path d="M78.8945 37C83.8815 37.8895 88.4758 40.2866 92.0581 43.8682C95.6405 47.4497 98.0387 52.0435 98.9294 57.0302" stroke="#928EEB"/>
<defs>
<linearGradient id="paint0_linear_1947_2728" x1="74.8849" y1="23" x2="74.8849" y2="123" gradientUnits="userSpaceOnUse">
<stop stop-color="#808080"/>
<stop offset="1" stop-color="#141414"/>
</linearGradient>
</defs>
</svg>
