<svg width="20" height="20" viewBox="0 0 20 20" fill="none" xmlns="http://www.w3.org/2000/svg">
<g clip-path="url(#clip0_1587_7905)">
<path d="M10.0001 6.94319C8.31695 6.94319 6.94334 8.3168 6.94334 9.99999C6.94334 11.6832 8.31695 13.0568 10.0001 13.0568C11.6833 13.0568 13.0569 11.6832 13.0569 9.99999C13.0569 8.3168 11.6833 6.94319 10.0001 6.94319ZM19.1682 9.99999C19.1682 8.73416 19.1797 7.47979 19.1086 6.21626C19.0375 4.74863 18.7027 3.4461 17.6295 2.3729C16.554 1.2974 15.2538 0.964889 13.7862 0.893801C12.5203 0.822712 11.266 0.834178 10.0024 0.834178C8.7366 0.834178 7.48224 0.822712 6.2187 0.893801C4.75107 0.964889 3.44854 1.29969 2.37534 2.3729C1.29984 3.4484 0.96733 4.74863 0.896242 6.21626C0.825154 7.48209 0.83662 8.73645 0.83662 9.99999C0.83662 11.2635 0.825154 12.5202 0.896242 13.7837C0.96733 15.2514 1.30213 16.5539 2.37534 17.6271C3.45084 18.7026 4.75107 19.0351 6.2187 19.1062C7.48453 19.1773 8.73889 19.1658 10.0024 19.1658C11.2683 19.1658 12.5226 19.1773 13.7862 19.1062C15.2538 19.0351 16.5563 18.7003 17.6295 17.6271C18.705 16.5516 19.0375 15.2514 19.1086 13.7837C19.182 12.5202 19.1682 11.2658 19.1682 9.99999ZM10.0001 14.7033C7.39739 14.7033 5.29684 12.6027 5.29684 9.99999C5.29684 7.39724 7.39739 5.29669 10.0001 5.29669C12.6029 5.29669 14.7034 7.39724 14.7034 9.99999C14.7034 12.6027 12.6029 14.7033 10.0001 14.7033ZM14.8961 6.2025C14.2884 6.2025 13.7976 5.71176 13.7976 5.10407C13.7976 4.49638 14.2884 4.00564 14.8961 4.00564C15.5038 4.00564 15.9945 4.49638 15.9945 5.10407C15.9947 5.24837 15.9664 5.39128 15.9113 5.52463C15.8561 5.65798 15.7752 5.77914 15.6732 5.88118C15.5711 5.98321 15.45 6.06412 15.3166 6.11925C15.1833 6.17439 15.0404 6.20268 14.8961 6.2025Z" fill="white"/>
</g>
<defs>
<clipPath id="clip0_1587_7905">
<rect width="20" height="20" fill="white"/>
</clipPath>
</defs>
</svg>
