<svg width="20" height="20" viewBox="0 0 20 20" fill="none" xmlns="http://www.w3.org/2000/svg">
<path d="M4.68344 3.59122C4.68318 4.10143 4.48026 4.59064 4.1193 4.95123C3.75835 5.31182 3.26894 5.51426 2.75873 5.514C2.24852 5.51375 1.7593 5.31082 1.39871 4.94987C1.03812 4.58892 0.835683 4.0995 0.835938 3.58929C0.836193 3.07908 1.03912 2.58987 1.40007 2.22928C1.76102 1.86868 2.25044 1.66625 2.76065 1.6665C3.27086 1.66676 3.76007 1.86968 4.12066 2.23064C4.48126 2.59159 4.68369 3.08101 4.68344 3.59122ZM4.74115 6.93854H0.89365V18.9812H4.74115V6.93854ZM10.8202 6.93854H6.99194V18.9812H10.7817V12.6617C10.7817 9.14123 15.3699 8.8142 15.3699 12.6617V18.9812H19.1693V11.3535C19.1693 5.41878 12.3784 5.64001 10.7817 8.55449L10.8202 6.93854Z" fill="white"/>
</svg>
