<svg width="150" height="150" viewBox="0 0 150 150" fill="none" xmlns="http://www.w3.org/2000/svg">
<path d="M93.9952 90.8089C89.7544 104.867 77.5335 115.755 62.676 117.916C54.1566 119.197 45.4533 117.601 37.9427 113.381L25.2727 116.554C22.044 117.356 19.1098 114.448 19.909 111.217L23.0852 98.5206C18.8755 91.0167 17.2801 82.3262 18.5498 73.8164C21.0581 56.8239 34.9035 43.2439 51.9515 41.1614C60.8065 40.0677 69.1831 41.9635 76.1481 45.9914" stroke="white" stroke-width="0.6" stroke-linecap="round" stroke-linejoin="round"/>
<path d="M93.9952 90.8089C89.7544 104.867 77.5335 115.755 62.676 117.916C54.1566 119.197 45.4533 117.601 37.9427 113.381L25.2727 116.554C22.044 117.356 19.1098 114.448 19.909 111.217L23.0852 98.5206C18.8755 91.0167 17.2801 82.3262 18.5498 73.8164C21.0581 56.8239 34.9035 43.2439 51.9515 41.1614C60.8065 40.0677 69.1831 41.9635 76.1481 45.9914" stroke="url(#paint0_linear_1947_2721)" stroke-width="0.6" stroke-linecap="round" stroke-linejoin="round"/>
<path d="M106.122 31.8419C119.358 33.4752 130.132 44.0073 132.063 57.2052C133.06 63.8201 131.82 70.5783 128.54 76.4086L131.007 86.2582C131.151 86.8316 131.144 87.4325 130.986 88.0022C130.829 88.572 130.526 89.0912 130.108 89.5092C129.69 89.9272 129.171 90.2298 128.601 90.3874C128.031 90.545 127.43 90.5523 126.857 90.4086L117.004 87.944C111.174 91.2227 104.416 92.4616 97.8011 91.4644C84.6032 89.5336 74.0682 78.7594 72.4407 65.5207C71.8596 60.9593 72.3307 56.3255 73.8179 51.9745C75.3051 47.6235 77.769 43.6708 81.0205 40.4195C84.272 37.1683 88.2249 34.7048 92.5761 33.2179C96.9272 31.7311 101.561 31.2604 106.122 31.8419Z" stroke="white" stroke-width="0.6" stroke-linecap="round" stroke-linejoin="round"/>
<path d="M106.122 31.8419C119.358 33.4752 130.132 44.0073 132.063 57.2052C133.06 63.8201 131.82 70.5783 128.54 76.4086L131.007 86.2582C131.151 86.8316 131.144 87.4325 130.986 88.0022C130.829 88.572 130.526 89.0912 130.108 89.5092C129.69 89.9272 129.171 90.2298 128.601 90.3874C128.031 90.545 127.43 90.5523 126.857 90.4086L117.004 87.944C111.174 91.2227 104.416 92.4616 97.8011 91.4644C84.6032 89.5336 74.0682 78.7594 72.4407 65.5207C71.8596 60.9593 72.3307 56.3255 73.8179 51.9745C75.3051 47.6235 77.769 43.6708 81.0205 40.4195C84.272 37.1683 88.2249 34.7048 92.5761 33.2179C96.9272 31.7311 101.561 31.2604 106.122 31.8419Z" stroke="url(#paint1_linear_1947_2721)" stroke-width="0.6" stroke-linecap="round" stroke-linejoin="round"/>
<path d="M104.846 53.0542L104.846 53.0535C104.9 52.7274 104.882 52.3934 104.794 52.0748C104.706 51.7562 104.549 51.4605 104.335 51.2084C104.122 50.9563 103.855 50.7538 103.555 50.6149C103.256 50.476 102.929 50.4041 102.598 50.4041C102.268 50.4041 101.941 50.476 101.641 50.6149C101.341 50.7538 101.075 50.9563 100.861 51.2084C100.647 51.4605 100.491 51.7562 100.403 52.0748C100.315 52.3934 100.297 52.7274 100.351 53.0535L100.351 53.0542L102.105 63.5822C102.145 63.8233 102.354 64 102.598 64C102.843 64 103.051 63.8233 103.092 63.5822L104.846 53.0542Z" fill="url(#paint2_linear_1947_2721)"/>
<path d="M104.846 53.0542L104.846 53.0535C104.9 52.7274 104.882 52.3934 104.794 52.0748C104.706 51.7562 104.549 51.4605 104.335 51.2084C104.122 50.9563 103.855 50.7538 103.555 50.6149C103.256 50.476 102.929 50.4041 102.598 50.4041C102.268 50.4041 101.941 50.476 101.641 50.6149C101.341 50.7538 101.075 50.9563 100.861 51.2084C100.647 51.4605 100.491 51.7562 100.403 52.0748C100.315 52.3934 100.297 52.7274 100.351 53.0535L100.351 53.0542L102.105 63.5822C102.145 63.8233 102.354 64 102.598 64C102.843 64 103.051 63.8233 103.092 63.5822L104.846 53.0542Z" fill="url(#paint3_linear_1947_2721)"/>
<path d="M104.846 53.0542L104.846 53.0535C104.9 52.7274 104.882 52.3934 104.794 52.0748C104.706 51.7562 104.549 51.4605 104.335 51.2084C104.122 50.9563 103.855 50.7538 103.555 50.6149C103.256 50.476 102.929 50.4041 102.598 50.4041C102.268 50.4041 101.941 50.476 101.641 50.6149C101.341 50.7538 101.075 50.9563 100.861 51.2084C100.647 51.4605 100.491 51.7562 100.403 52.0748C100.315 52.3934 100.297 52.7274 100.351 53.0535L100.351 53.0542L102.105 63.5822C102.145 63.8233 102.354 64 102.598 64C102.843 64 103.051 63.8233 103.092 63.5822L104.846 53.0542Z" stroke="black" stroke-linecap="round" stroke-linejoin="round"/>
<path d="M104.846 53.0542L104.846 53.0535C104.9 52.7274 104.882 52.3934 104.794 52.0748C104.706 51.7562 104.549 51.4605 104.335 51.2084C104.122 50.9563 103.855 50.7538 103.555 50.6149C103.256 50.476 102.929 50.4041 102.598 50.4041C102.268 50.4041 101.941 50.476 101.641 50.6149C101.341 50.7538 101.075 50.9563 100.861 51.2084C100.647 51.4605 100.491 51.7562 100.403 52.0748C100.315 52.3934 100.297 52.7274 100.351 53.0535L100.351 53.0542L102.105 63.5822C102.145 63.8233 102.354 64 102.598 64C102.843 64 103.051 63.8233 103.092 63.5822L104.846 53.0542Z" stroke="url(#paint4_linear_1947_2721)" stroke-linecap="round" stroke-linejoin="round"/>
<path d="M102.599 73.1C103.649 73.1 104.499 72.2494 104.499 71.2C104.499 70.1507 103.649 69.3 102.599 69.3C101.55 69.3 100.699 70.1507 100.699 71.2C100.699 72.2494 101.55 73.1 102.599 73.1Z" fill="url(#paint5_linear_1947_2721)"/>
<path d="M102.599 73.1C103.649 73.1 104.499 72.2494 104.499 71.2C104.499 70.1507 103.649 69.3 102.599 69.3C101.55 69.3 100.699 70.1507 100.699 71.2C100.699 72.2494 101.55 73.1 102.599 73.1Z" fill="url(#paint6_linear_1947_2721)"/>
<path d="M102.599 73.1C103.649 73.1 104.499 72.2494 104.499 71.2C104.499 70.1507 103.649 69.3 102.599 69.3C101.55 69.3 100.699 70.1507 100.699 71.2C100.699 72.2494 101.55 73.1 102.599 73.1Z" stroke="black"/>
<path d="M102.599 73.1C103.649 73.1 104.499 72.2494 104.499 71.2C104.499 70.1507 103.649 69.3 102.599 69.3C101.55 69.3 100.699 70.1507 100.699 71.2C100.699 72.2494 101.55 73.1 102.599 73.1Z" stroke="url(#paint7_linear_1947_2721)"/>
<defs>
<linearGradient id="paint0_linear_1947_2721" x1="56.0601" y1="40.8558" x2="56.0601" y2="118.347" gradientUnits="userSpaceOnUse">
<stop stop-color="#808080"/>
<stop offset="1" stop-color="#141414"/>
</linearGradient>
<linearGradient id="paint1_linear_1947_2721" x1="102.299" y1="31.6001" x2="102.299" y2="91.8002" gradientUnits="userSpaceOnUse">
<stop stop-color="#808080"/>
<stop offset="1" stop-color="#141414"/>
</linearGradient>
<linearGradient id="paint2_linear_1947_2721" x1="102.598" y1="50.9041" x2="102.598" y2="63.5" gradientUnits="userSpaceOnUse">
<stop stop-color="#452E8A"/>
<stop offset="1" stop-color="#817DE8"/>
</linearGradient>
<linearGradient id="paint3_linear_1947_2721" x1="102.598" y1="50.9041" x2="102.598" y2="63.5" gradientUnits="userSpaceOnUse">
<stop stop-color="#452E8A"/>
<stop offset="1" stop-color="#817DE8"/>
</linearGradient>
<linearGradient id="paint4_linear_1947_2721" x1="102.598" y1="50.9041" x2="102.598" y2="63.5" gradientUnits="userSpaceOnUse">
<stop stop-color="#452E8A"/>
<stop offset="1" stop-color="#817DE8"/>
</linearGradient>
<linearGradient id="paint5_linear_1947_2721" x1="102.599" y1="69.8" x2="102.599" y2="72.6" gradientUnits="userSpaceOnUse">
<stop stop-color="#452E8A"/>
<stop offset="1" stop-color="#817DE8"/>
</linearGradient>
<linearGradient id="paint6_linear_1947_2721" x1="102.599" y1="69.8" x2="102.599" y2="72.6" gradientUnits="userSpaceOnUse">
<stop stop-color="#452E8A"/>
<stop offset="1" stop-color="#817DE8"/>
</linearGradient>
<linearGradient id="paint7_linear_1947_2721" x1="102.599" y1="69.8" x2="102.599" y2="72.6" gradientUnits="userSpaceOnUse">
<stop stop-color="#452E8A"/>
<stop offset="1" stop-color="#817DE8"/>
</linearGradient>
</defs>
</svg>
