<svg width="150" height="150" viewBox="0 0 150 150" fill="none" xmlns="http://www.w3.org/2000/svg">
<path d="M115.013 60.7499L115.013 60.7508C115.029 66.8149 113.659 72.8024 111.008 78.2562C108.356 83.71 104.494 88.4861 99.7161 92.2197C98.6482 93.0409 97.7821 94.0952 97.1836 95.3022C96.5849 96.5097 96.27 97.8382 96.2631 99.186V99.1875V102C96.2631 103.661 95.6033 105.254 94.4289 106.428C93.2544 107.603 91.6615 108.263 90.0006 108.263H60.0006C58.3397 108.263 56.7468 107.603 55.5724 106.428C54.3979 105.254 53.7381 103.661 53.7381 102V99.1875V99.1872C53.7368 97.8528 53.4299 96.5365 52.8409 95.3391C52.2519 94.1418 51.3964 93.0952 50.3402 92.2797C45.5776 88.5704 41.7206 83.8268 39.061 78.4076C36.4011 72.988 35.0084 67.0345 34.9881 60.9975L34.9881 60.9968C34.8672 39.307 52.3856 21.2585 74.0375 20.7374L74.0303 20.4375L74.0375 20.7374C79.3725 20.609 84.6793 21.549 89.6456 23.5023C94.6118 25.4555 99.1372 28.3824 102.955 32.1108C106.773 35.8392 109.807 40.2936 111.878 45.212C113.949 50.1304 115.015 55.4134 115.013 60.7499ZM96.2631 120.75C96.2631 121.416 95.9984 122.055 95.5272 122.527C95.056 122.998 94.417 123.263 93.7506 123.263H56.2506C55.5843 123.263 54.9452 122.998 54.474 122.527C54.0028 122.055 53.7381 121.416 53.7381 120.75C53.7381 120.084 54.0028 119.445 54.474 118.973C54.9452 118.502 55.5843 118.238 56.2506 118.238H93.7506C94.417 118.238 95.056 118.502 95.5272 118.973C95.9984 119.445 96.2631 120.084 96.2631 120.75Z" stroke="url(#paint0_linear_1947_2728)" stroke-width="0.6"/>
<path d="M78.8945 37C83.8815 37.8895 88.4758 40.2866 92.0581 43.8682C95.6405 47.4497 98.0387 52.0435 98.9294 57.0302" stroke="#928EEB"/>
<defs>
<linearGradient id="paint0_linear_1947_2728" x1="75.0004" y1="20.4258" x2="75.0004" y2="123.563" gradientUnits="userSpaceOnUse">
<stop stop-color="#808080"/>
<stop offset="1" stop-color="#141414"/>
</linearGradient>
</defs>
</svg>
