<svg width="143" height="50" viewBox="0 0 143 50" fill="none" xmlns="http://www.w3.org/2000/svg">
<g id="opslyft 1">
<path id="Vector" d="M2.46108 25.8375C2.46108 24.2264 2.77127 22.7028 3.39166 21.3097C4.00057 19.9366 4.85694 18.6891 5.91733 17.6306C7.00625 16.5718 8.28421 15.7301 9.68378 15.15C11.1363 14.5382 12.6962 14.2273 14.2705 14.2361C15.9111 14.2361 17.4607 14.5403 18.8793 15.15C20.2733 15.7414 21.5493 16.5823 22.6458 17.632C23.7291 18.6752 24.5952 19.9255 25.1935 21.3097C25.8139 22.7028 26.1241 24.2042 26.1241 25.8375C26.1318 27.3886 25.8147 28.9239 25.1935 30.3431C24.5907 31.7379 23.7255 33.0019 22.6458 34.0653C21.5559 35.1285 20.2785 35.9773 18.8793 36.5681C17.4607 37.1778 15.9318 37.482 14.2705 37.482C12.6962 37.4908 11.1363 37.1799 9.68378 36.5681C8.28169 35.9828 7.00335 35.1333 5.91733 34.0653C4.85134 32.995 3.99457 31.7323 3.39166 30.3431C2.7704 28.9239 2.4533 27.3886 2.46108 25.8375ZM7.09193 25.8375C7.09193 26.7959 7.2684 27.7097 7.64615 28.5792C8.00452 29.4205 8.52353 30.1826 9.17368 30.8222C9.83563 31.4611 10.6098 31.9702 11.4567 32.3236C12.3416 32.692 13.291 32.8772 14.2485 32.8681C15.2057 32.8751 16.1547 32.69 17.0402 32.3236C17.8894 31.9755 18.6641 31.4658 19.3219 30.8222C19.9676 30.1792 20.4864 29.4185 20.8508 28.5806C21.2249 27.7157 21.4138 26.781 21.405 25.8375C21.405 24.8792 21.2271 23.9653 20.8508 23.1153C20.4861 22.2841 19.9672 21.5308 19.3219 20.8959C18.6604 20.2571 17.8866 19.748 17.0402 19.3945C16.1547 19.0281 15.2057 18.843 14.2485 18.85C13.2912 18.843 12.3422 19.0281 11.4567 19.3945C10.6069 19.7424 9.83177 20.2521 9.17368 20.8959C8.52874 21.5314 8.01027 22.2852 7.64615 23.1167C7.27213 23.9738 7.08321 24.9013 7.09193 25.8375ZM39.4845 14.2792C41.1251 14.2792 42.6746 14.5847 44.0933 15.1931C45.4873 15.7844 46.7634 16.6253 47.8597 17.675C48.9431 18.7182 49.8092 19.9685 50.4074 21.3528C51.0278 22.7459 51.338 24.2486 51.338 25.8806C51.3458 27.4317 51.0287 28.9669 50.4074 30.3861C49.8046 31.7809 48.9394 33.0449 47.8597 34.1084C46.7698 35.1715 45.4924 36.0203 44.0933 36.6111C42.6746 37.2223 41.1457 37.5264 39.4845 37.5264H32.3941V46.8209H27.6971V25.9028C27.6971 24.2917 28.0073 22.7681 28.6277 21.375C29.2366 20.0019 30.093 18.7544 31.1533 17.6959C32.2422 16.637 33.5202 15.7954 34.9198 15.2153C36.3384 14.5625 37.8687 14.2792 39.4845 14.2792ZM42.2762 32.3236C43.1255 31.9756 43.9002 31.4658 44.5579 30.8222C45.2037 30.1792 45.7225 29.4185 46.0868 28.5806C46.4632 27.7097 46.641 26.8167 46.641 25.8375C46.641 24.8792 46.4632 23.9653 46.0868 23.1153C45.7221 22.2841 45.2032 21.5308 44.5579 20.8959C43.8964 20.2571 43.1227 19.748 42.2762 19.3945C41.3907 19.0281 40.4417 18.843 39.4845 18.85C38.5098 18.85 37.5792 19.025 36.7148 19.3945C35.8746 19.7481 35.1077 20.2574 34.4538 20.8959C33.8089 21.5313 33.2904 22.2851 32.9263 23.1167C32.5501 23.9731 32.3611 24.9011 32.3721 25.8375V32.8681H39.4624C40.4592 32.8681 41.3911 32.6945 42.2762 32.3236ZM74.0925 14.1695V18.7625H59.8456C59.5343 18.7545 59.2246 18.8102 58.9353 18.9262C58.646 19.0422 58.383 19.2162 58.1623 19.4375C57.6963 19.8959 57.4757 20.4389 57.4757 21.0917C57.4757 21.7445 57.6963 22.3111 58.1623 22.7681C58.6269 23.225 59.1825 23.4639 59.8456 23.4639H69.3072C70.2819 23.4639 71.2125 23.6389 72.0755 24.0084C72.9148 24.3545 73.6818 24.8568 74.3365 25.4889C74.979 26.0986 75.4877 26.8375 75.8654 27.6875C76.2418 28.5361 76.4183 29.4292 76.4183 30.4084C76.4183 31.3667 76.2418 32.2806 75.8654 33.1292C75.5003 33.9605 74.9809 34.7138 74.3351 35.3486C73.6818 35.9874 72.9154 36.4972 72.0755 36.8514C71.1993 37.2212 70.2571 37.406 69.3072 37.3945H55.1045V32.8028H69.3072C70.0159 32.8028 70.5921 32.5847 71.0347 32.1278C71.5006 31.6695 71.7212 31.1042 71.7212 30.4292C71.7212 29.7764 71.5006 29.2334 71.0347 28.7764C70.5701 28.3181 69.9938 28.1014 69.3072 28.1014H59.8456C58.9182 28.1101 57.9982 27.9337 57.1388 27.5823C56.2794 27.2309 55.4975 26.7116 54.8384 26.0542C54.2069 25.4124 53.6963 24.6604 53.3315 23.8347C52.9557 22.9778 52.7671 22.0494 52.7787 21.1125C52.7787 20.1556 52.9552 19.2417 53.3315 18.3931C53.6886 17.5693 54.2003 16.8227 54.8384 16.1945C55.4588 15.5847 56.2129 15.0834 57.0759 14.7139C57.9529 14.3433 58.8961 14.158 59.847 14.1695H74.0925ZM82.6221 4.85419V37.3514H77.9485V4.85419H82.6221ZM107.97 14.2139V35.0889C107.97 36.7 107.66 38.2222 107.039 39.6167C106.43 40.9956 105.574 42.2495 104.514 43.3153C103.44 44.3882 102.168 45.2389 100.769 45.8195C99.3492 46.4278 97.8217 46.7334 96.1604 46.7334H93.7891V42.1389H96.1604C97.1351 42.1389 98.0657 41.9653 98.9301 41.5945C99.7698 41.2407 100.536 40.7314 101.19 40.0931C101.835 39.45 102.354 38.6893 102.719 37.8514C103.095 36.9806 103.271 36.0875 103.271 35.1084V35.0431C102.282 35.8088 101.175 36.4048 99.993 36.807C98.7645 37.2187 97.4771 37.4242 96.1825 37.4153C94.6081 37.4241 93.0482 37.1132 91.5957 36.5014C90.187 35.9164 88.9013 35.0671 87.8072 33.9986C86.7275 32.9352 85.8623 31.6712 85.2595 30.2764C84.6382 28.8572 84.3211 27.3219 84.3289 25.7709V14.2125H89.0025V25.7931C89.0025 26.75 89.1817 27.6639 89.5581 28.5347C89.9166 29.3755 90.4356 30.1372 91.0856 30.7764C91.7475 31.4158 92.5217 31.9254 93.3687 32.2792C94.2535 32.6476 95.203 32.8328 96.1604 32.8236C97.1351 32.8236 98.0657 32.6486 98.9301 32.2792C99.7699 31.925 100.536 31.4152 101.19 30.7764C101.835 30.1333 102.354 29.3727 102.719 28.5347C103.095 27.6639 103.271 26.7709 103.271 25.7931V14.2125H107.97V14.2139ZM118.649 10.0139C117.8 10.3616 117.025 10.8709 116.367 11.5139C115.721 12.1496 115.202 12.9039 114.837 13.7361C114.461 14.5923 114.273 15.5197 114.284 16.4556V18.8278H123.744V23.4209H114.284V37.375H109.609V16.4334C109.609 14.8222 109.919 13.3 110.54 11.9056C111.149 10.5274 112.013 9.27913 113.087 8.2278C114.188 7.1729 115.472 6.33152 116.876 5.74586C118.328 5.13403 119.888 4.82322 121.463 4.83197H123.766V9.42502H121.418C120.444 9.46808 119.513 9.64308 118.647 10.0125L118.649 10.0139ZM139.63 32.7584V37.3514H137.327C135.752 37.3602 134.192 37.0494 132.74 36.4375C131.331 35.8525 130.046 35.0032 128.951 33.9347C127.872 32.8713 127.006 31.6073 126.404 30.2125C125.782 28.7933 125.465 27.258 125.473 25.707V4.85419H130.147V18.8056H139.608V23.3972H130.148V25.7264C130.148 26.6847 130.326 27.5986 130.702 28.4695C131.061 29.3104 131.581 30.072 132.231 30.7111C132.893 31.3504 133.666 31.86 134.513 32.2139C135.398 32.5819 136.347 32.7666 137.305 32.757H139.63V32.7584Z" fill="white"/>
</g>
</svg>
