<svg width="150" height="150" viewBox="0 0 150 150" fill="none" xmlns="http://www.w3.org/2000/svg">
<path d="M23.8906 110.772L23.8906 110.771L23.8914 110.757C24.0056 108.742 24.1235 106.66 23.8879 104.701C23.651 102.732 23.0548 100.865 21.7231 99.2906L21.7229 99.2905C21.2012 98.6745 20.9868 98.0091 21.0602 97.3024C21.1075 96.8484 21.3781 96.4013 21.735 95.9798C21.973 95.6988 22.2179 95.462 22.4395 95.2479C22.5578 95.1336 22.6694 95.0257 22.7698 94.9209L23.07 94.6076L22.6708 94.4374C21.2082 93.8138 20.2701 92.8608 19.9583 91.8109L19.9582 91.8108C19.6851 90.8922 19.7807 89.989 19.9849 89.2609C20.1903 88.5289 20.4985 87.9989 20.617 87.841L20.6485 87.799L20.6639 87.7488C20.8514 87.1371 20.5226 86.4981 20.0871 85.9237C19.6399 85.3337 18.9957 84.7052 18.3564 84.0813C18.3563 84.0813 18.3562 84.0812 18.3562 84.0812L18.3469 84.0721L18.3468 84.072C17.6078 83.3509 16.842 82.6025 16.2585 81.8125C15.6747 81.0222 15.3 80.2244 15.3 79.4087C15.3 79.1725 15.4377 78.8306 15.7893 78.3583C16.1335 77.8958 16.6502 77.3505 17.3324 76.7149C18.6961 75.4443 20.6808 73.8493 23.1654 71.8834L23.186 71.8671C25.5044 70.0329 27.7282 68.2734 28.7257 67.1799L28.5098 66.9829L28.7257 67.1798C29.9474 65.84 30.3859 64.405 30.3523 62.5872C30.3194 60.8019 29.8301 58.6244 29.1924 55.7862L29.1847 55.7523L29.1847 55.7523L29.1838 55.748L29.1837 55.7478L28.9819 54.847C28.63 53.2728 28.6764 51.0242 28.9613 48.4981C29.2453 45.98 29.7623 43.2165 30.3328 40.6277C31.4726 35.4554 32.8212 31.0009 32.9333 30.6332C32.9335 30.6329 32.9336 30.6325 32.9337 30.6322L32.9369 30.6217L32.9409 30.6133C32.941 30.6129 32.9412 30.6125 32.9414 30.6121C41.2492 13.2664 58.4667 3.3 80.228 3.3C98.2038 3.3 115.758 10.4297 123.93 20.9745C131.916 31.278 134.729 43.1845 134.7 54.0491C134.671 64.9183 131.797 74.7239 128.435 80.804C126.885 83.6066 124.967 86.3618 122.57 89.2284C114.511 98.8634 110.799 110.782 111.523 124.632C112.063 134.977 114.979 143.213 116.06 145.95L59.625 145.95H59.4199L59.4178 145.939L59.4177 145.939L59.4158 145.929C58.8686 143.084 57.8586 137.833 54.7037 133.265C51.5317 128.673 46.2051 124.791 37.0824 124.686C31.5615 124.622 27.9578 123.519 25.9542 121.403C24.7087 120.087 24.1309 118.483 23.8959 116.675C23.6599 114.86 23.772 112.864 23.8904 110.774C23.8904 110.774 23.8904 110.774 23.8904 110.774L23.8906 110.772Z" stroke="url(#paint0_linear_1681_24158)" stroke-width="0.6"/>
<path d="M23.8906 110.772L23.8906 110.771L23.8914 110.757C24.0056 108.742 24.1235 106.66 23.8879 104.701C23.651 102.732 23.0548 100.865 21.7231 99.2906L21.7229 99.2905C21.2012 98.6745 20.9868 98.0091 21.0602 97.3024C21.1075 96.8484 21.3781 96.4013 21.735 95.9798C21.973 95.6988 22.2179 95.462 22.4395 95.2479C22.5578 95.1336 22.6694 95.0257 22.7698 94.9209L23.07 94.6076L22.6708 94.4374C21.2082 93.8138 20.2701 92.8608 19.9583 91.8109L19.9582 91.8108C19.6851 90.8922 19.7807 89.989 19.9849 89.2609C20.1903 88.5289 20.4985 87.9989 20.617 87.841L20.6485 87.799L20.6639 87.7488C20.8514 87.1371 20.5226 86.4981 20.0871 85.9237C19.6399 85.3337 18.9957 84.7052 18.3564 84.0813C18.3563 84.0813 18.3562 84.0812 18.3562 84.0812L18.3469 84.0721L18.3468 84.072C17.6078 83.3509 16.842 82.6025 16.2585 81.8125C15.6747 81.0222 15.3 80.2244 15.3 79.4087C15.3 79.1725 15.4377 78.8306 15.7893 78.3583C16.1335 77.8958 16.6502 77.3505 17.3324 76.7149C18.6961 75.4443 20.6808 73.8493 23.1654 71.8834L23.186 71.8671C25.5044 70.0329 27.7282 68.2734 28.7257 67.1799L28.5098 66.9829L28.7257 67.1798C29.9474 65.84 30.3859 64.405 30.3523 62.5872C30.3194 60.8019 29.8301 58.6244 29.1924 55.7862L29.1847 55.7523L29.1847 55.7523L29.1838 55.748L29.1837 55.7478L28.9819 54.847C28.63 53.2728 28.6764 51.0242 28.9613 48.4981C29.2453 45.98 29.7623 43.2165 30.3328 40.6277C31.4726 35.4554 32.8212 31.0009 32.9333 30.6332C32.9335 30.6329 32.9336 30.6325 32.9337 30.6322L32.9369 30.6217L32.9409 30.6133C32.941 30.6129 32.9412 30.6125 32.9414 30.6121C41.2492 13.2664 58.4667 3.3 80.228 3.3C98.2038 3.3 115.758 10.4297 123.93 20.9745C131.916 31.278 134.729 43.1845 134.7 54.0491C134.671 64.9183 131.797 74.7239 128.435 80.804C126.885 83.6066 124.967 86.3618 122.57 89.2284C114.511 98.8634 110.799 110.782 111.523 124.632C112.063 134.977 114.979 143.213 116.06 145.95L59.625 145.95H59.4199L59.4178 145.939L59.4177 145.939L59.4158 145.929C58.8686 143.084 57.8586 137.833 54.7037 133.265C51.5317 128.673 46.2051 124.791 37.0824 124.686C31.5615 124.622 27.9578 123.519 25.9542 121.403C24.7087 120.087 24.1309 118.483 23.8959 116.675C23.6599 114.86 23.772 112.864 23.8904 110.774C23.8904 110.774 23.8904 110.774 23.8904 110.774L23.8906 110.772Z" stroke="url(#paint1_linear_1681_24158)" stroke-width="0.6"/>
<path d="M88.3193 55.5826L78.4429 55.2682L66.082 46.946" stroke="white" stroke-width="0.6" stroke-miterlimit="10"/>
<path d="M88.3193 55.5826L78.4429 55.2682L66.082 46.946" stroke="url(#paint2_linear_1681_24158)" stroke-width="0.6" stroke-miterlimit="10"/>
<path d="M82.2148 66.9528L103.05 78.1861L112.323 87.0688L120.047 75.9724L127.033 65.3128L127.771 59.8464L124.746 45.5522L115.595 27.8407L110.282 20.4615L102.976 30.2185L115.374 38.0905" stroke="white" stroke-width="0.6" stroke-miterlimit="10"/>
<path d="M82.2148 66.9528L103.05 78.1861L112.323 87.0688L120.047 75.9724L127.033 65.3128L127.771 59.8464L124.746 45.5522L115.595 27.8407L110.282 20.4615L102.976 30.2185L115.374 38.0905" stroke="url(#paint3_linear_1681_24158)" stroke-width="0.6" stroke-miterlimit="10"/>
<path d="M93.1601 26.8571L102.975 30.2185L91.5365 18.9852L59.7305 18.9031L66.0768 46.946L77.306 25.9097" stroke="white" stroke-width="0.6" stroke-miterlimit="10"/>
<path d="M93.1601 26.8571L102.975 30.2185L91.5365 18.9852L59.7305 18.9031L66.0768 46.946L77.306 25.9097" stroke="url(#paint4_linear_1681_24158)" stroke-width="0.6" stroke-miterlimit="10"/>
<path d="M91.5351 18.9852L82.3846 35.7126L77.3047 25.9096L91.5351 18.9852Z" stroke="white" stroke-width="0.6" stroke-miterlimit="10"/>
<path d="M91.5351 18.9852L82.3846 35.7126L77.3047 25.9096L91.5351 18.9852Z" stroke="url(#paint5_linear_1681_24158)" stroke-width="0.6" stroke-miterlimit="10"/>
<path d="M43.8398 40.714C43.8398 40.714 59.1895 19.0672 59.7304 18.9031C60.2717 18.739 77.3753 25.9274 77.3753 25.9274" stroke="white" stroke-width="0.6" stroke-miterlimit="10"/>
<path d="M43.8398 40.714C43.8398 40.714 59.1895 19.0672 59.7304 18.9031C60.2717 18.739 77.3753 25.9274 77.3753 25.9274" stroke="url(#paint6_linear_1681_24158)" stroke-width="0.6" stroke-miterlimit="10"/>
<path d="M96.3414 40.8509L115.373 38.0905L103.565 16.7714L91.5368 18.9852L96.2844 40.8237L77.3064 25.9096L43.8398 40.714L66.0772 46.946L82.3863 35.7126L88.3145 55.5825L97.1038 62.6617L82.2141 66.9528L66.0772 46.946L96.2844 40.8237L88.347 55.5825L105.632 61.0489L114.192 69.5768L103.073 78.2133L104.746 91.5512L112.323 87.0688L114.192 69.5768" stroke="white" stroke-width="0.6" stroke-miterlimit="10"/>
<path d="M96.3414 40.8509L115.373 38.0905L103.565 16.7714L91.5368 18.9852L96.2844 40.8237L77.3064 25.9096L43.8398 40.714L66.0772 46.946L82.3863 35.7126L88.3145 55.5825L97.1038 62.6617L82.2141 66.9528L66.0772 46.946L96.2844 40.8237L88.347 55.5825L105.632 61.0489L114.192 69.5768L103.073 78.2133L104.746 91.5512L112.323 87.0688L114.192 69.5768" stroke="url(#paint7_linear_1681_24158)" stroke-width="0.6" stroke-miterlimit="10"/>
<path d="M97.3632 71.1069L97.1172 62.6888L105.628 61.0489L97.3632 71.1069Z" stroke="white" stroke-width="0.6" stroke-miterlimit="10"/>
<path d="M97.3632 71.1069L97.1172 62.6888L105.628 61.0489L97.3632 71.1069Z" stroke="url(#paint8_linear_1681_24158)" stroke-width="0.6" stroke-miterlimit="10"/>
<path d="M103.05 78.1861L97.375 71.1346L114.193 69.5768L116.555 61.213L122.089 50.3079L124.746 45.5522L112.52 50.9909L115.374 38.0905" stroke="white" stroke-width="0.6" stroke-miterlimit="10"/>
<path d="M103.05 78.1861L97.375 71.1346L114.193 69.5768L116.555 61.213L122.089 50.3079L124.746 45.5522L112.52 50.9909L115.374 38.0905" stroke="url(#paint9_linear_1681_24158)" stroke-width="0.6" stroke-miterlimit="10"/>
<path d="M127.768 59.8464L123.586 57.3865L116.551 61.213" stroke="white" stroke-width="0.6" stroke-miterlimit="10"/>
<path d="M127.768 59.8464L123.586 57.3865L116.551 61.213" stroke="url(#paint10_linear_1681_24158)" stroke-width="0.6" stroke-miterlimit="10"/>
<path d="M96.2422 40.8509L105.631 61.049L102.974 30.2186L96.2422 40.8509ZM96.2422 40.8509L112.518 50.991L105.631 61.049L116.553 61.2131L126.99 65.258L114.191 69.5768L120.004 76.1088" stroke="white" stroke-width="0.6" stroke-miterlimit="10"/>
<path d="M96.2422 40.8509L105.631 61.049L102.974 30.2186L96.2422 40.8509ZM96.2422 40.8509L112.518 50.991L105.631 61.049L116.553 61.2131L126.99 65.258L114.191 69.5768L120.004 76.1088" stroke="url(#paint11_linear_1681_24158)" stroke-width="0.6" stroke-miterlimit="10"/>
<path d="M123.59 57.3865L124.746 45.5522" stroke="white" stroke-width="0.6" stroke-miterlimit="10"/>
<path d="M123.59 57.3865L124.746 45.5522" stroke="url(#paint12_linear_1681_24158)" stroke-width="0.6" stroke-miterlimit="10"/>
<path d="M59.7305 18.9031L84.5335 43.2287L78.4376 55.2682L82.2138 66.9528L97.3739 71.1347" stroke="white" stroke-width="0.6" stroke-miterlimit="10"/>
<path d="M59.7305 18.9031L84.5335 43.2287L78.4376 55.2682L82.2138 66.9528L97.3739 71.1347" stroke="url(#paint13_linear_1681_24158)" stroke-width="0.6" stroke-miterlimit="10"/>
<path d="M43.8398 40.7139L84.5339 43.2287" stroke="white" stroke-width="0.6" stroke-miterlimit="10"/>
<path d="M43.8398 40.7139L84.5339 43.2287" stroke="url(#paint14_linear_1681_24158)" stroke-width="0.6" stroke-miterlimit="10"/>
<path d="M112.52 50.991L116.554 61.2131" stroke="white" stroke-width="0.6" stroke-miterlimit="10"/>
<path d="M112.52 50.991L116.554 61.2131" stroke="url(#paint15_linear_1681_24158)" stroke-width="0.6" stroke-miterlimit="10"/>
<path d="M103.566 16.7714L110.282 20.4615" stroke="white" stroke-width="0.6" stroke-miterlimit="10"/>
<path d="M103.566 16.7714L110.282 20.4615" stroke="url(#paint16_linear_1681_24158)" stroke-width="0.6" stroke-miterlimit="10"/>
<path d="M115.375 38.0905L124.747 45.5522" stroke="white" stroke-width="0.6" stroke-miterlimit="10"/>
<path d="M115.375 38.0905L124.747 45.5522" stroke="url(#paint17_linear_1681_24158)" stroke-width="0.6" stroke-miterlimit="10"/>
<ellipse cx="62.8113" cy="32.1721" rx="1.11207" ry="1.23725" fill="#D9D9D9"/>
<ellipse cx="62.8113" cy="32.1721" rx="1.11207" ry="1.23725" fill="url(#paint18_linear_1681_24158)"/>
<ellipse cx="44.1316" cy="40.5854" rx="1.11207" ry="1.23725" fill="#D9D9D9"/>
<ellipse cx="44.1316" cy="40.5854" rx="1.11207" ry="1.23725" fill="url(#paint19_linear_1681_24158)"/>
<ellipse cx="60.1433" cy="18.8099" rx="1.11207" ry="1.23725" fill="#D9D9D9"/>
<ellipse cx="60.1433" cy="18.8099" rx="1.11207" ry="1.23725" fill="url(#paint20_linear_1681_24158)"/>
<ellipse cx="70.3738" cy="29.2028" rx="1.11207" ry="1.23725" fill="#D9D9D9"/>
<ellipse cx="70.3738" cy="29.2028" rx="1.11207" ry="1.23725" fill="url(#paint21_linear_1681_24158)"/>
<ellipse cx="77.4988" cy="25.7384" rx="1.11207" ry="1.23725" fill="#D9D9D9"/>
<ellipse cx="77.4988" cy="25.7384" rx="1.11207" ry="1.23725" fill="url(#paint22_linear_1681_24158)"/>
<ellipse cx="91.7293" cy="18.8099" rx="1.11207" ry="1.23725" fill="#D9D9D9"/>
<ellipse cx="91.7293" cy="18.8099" rx="1.11207" ry="1.23725" fill="url(#paint23_linear_1681_24158)"/>
<ellipse cx="103.737" cy="16.8303" rx="1.11207" ry="1.23725" fill="#D9D9D9"/>
<ellipse cx="103.737" cy="16.8303" rx="1.11207" ry="1.23725" fill="url(#paint24_linear_1681_24158)"/>
<ellipse cx="107.741" cy="24.2538" rx="1.11207" ry="1.23725" fill="#D9D9D9"/>
<ellipse cx="107.741" cy="24.2538" rx="1.11207" ry="1.23725" fill="url(#paint25_linear_1681_24158)"/>
<ellipse cx="110.409" cy="20.2946" rx="1.11207" ry="1.23725" fill="#D9D9D9"/>
<ellipse cx="110.409" cy="20.2946" rx="1.11207" ry="1.23725" fill="url(#paint26_linear_1681_24158)"/>
<ellipse cx="115.303" cy="38.111" rx="1.11207" ry="1.23725" fill="#D9D9D9"/>
<ellipse cx="115.303" cy="38.111" rx="1.11207" ry="1.23725" fill="url(#paint27_linear_1681_24158)"/>
<ellipse cx="104.186" cy="40.0905" rx="1.11207" ry="1.23725" fill="#D9D9D9"/>
<ellipse cx="104.186" cy="40.0905" rx="1.11207" ry="1.23725" fill="url(#paint28_linear_1681_24158)"/>
<ellipse cx="104.624" cy="46.0293" rx="1.11207" ry="1.23725" fill="#D9D9D9"/>
<ellipse cx="104.624" cy="46.0293" rx="1.11207" ry="1.23725" fill="url(#paint29_linear_1681_24158)"/>
<ellipse cx="112.636" cy="50.9783" rx="1.11207" ry="1.23725" fill="#D9D9D9"/>
<ellipse cx="112.636" cy="50.9783" rx="1.11207" ry="1.23725" fill="url(#paint30_linear_1681_24158)"/>
<ellipse cx="124.643" cy="45.5344" rx="1.11207" ry="1.23725" fill="#D9D9D9"/>
<ellipse cx="124.643" cy="45.5344" rx="1.11207" ry="1.23725" fill="url(#paint31_linear_1681_24158)"/>
<ellipse cx="123.753" cy="57.412" rx="1.11207" ry="1.23725" fill="#D9D9D9"/>
<ellipse cx="123.753" cy="57.412" rx="1.11207" ry="1.23725" fill="url(#paint32_linear_1681_24158)"/>
<ellipse cx="127.761" cy="59.8865" rx="1.11207" ry="1.23725" fill="#D9D9D9"/>
<ellipse cx="127.761" cy="59.8865" rx="1.11207" ry="1.23725" fill="url(#paint33_linear_1681_24158)"/>
<ellipse cx="127.311" cy="65.3303" rx="1.11207" ry="1.23725" fill="#D9D9D9"/>
<ellipse cx="127.311" cy="65.3303" rx="1.11207" ry="1.23725" fill="url(#paint34_linear_1681_24158)"/>
<ellipse cx="114.417" cy="69.7844" rx="1.11207" ry="1.23725" fill="#D9D9D9"/>
<ellipse cx="114.417" cy="69.7844" rx="1.11207" ry="1.23725" fill="url(#paint35_linear_1681_24158)"/>
<ellipse cx="119.749" cy="76.2181" rx="1.11207" ry="1.23725" fill="#D9D9D9"/>
<ellipse cx="119.749" cy="76.2181" rx="1.11207" ry="1.23725" fill="url(#paint36_linear_1681_24158)"/>
<ellipse cx="112.19" cy="87.1058" rx="1.11207" ry="1.23725" fill="#D9D9D9"/>
<ellipse cx="112.19" cy="87.1058" rx="1.11207" ry="1.23725" fill="url(#paint37_linear_1681_24158)"/>
<ellipse cx="103.296" cy="78.6925" rx="1.11207" ry="1.23725" fill="#D9D9D9"/>
<ellipse cx="103.296" cy="78.6925" rx="1.11207" ry="1.23725" fill="url(#paint38_linear_1681_24158)"/>
<ellipse cx="97.5144" cy="71.2692" rx="1.11207" ry="1.23725" fill="#D9D9D9"/>
<ellipse cx="97.5144" cy="71.2692" rx="1.11207" ry="1.23725" fill="url(#paint39_linear_1681_24158)"/>
<ellipse cx="105.514" cy="61.3712" rx="1.11207" ry="1.23725" fill="#D9D9D9"/>
<ellipse cx="105.514" cy="61.3712" rx="1.11207" ry="1.23725" fill="url(#paint40_linear_1681_24158)"/>
<ellipse cx="97.0613" cy="62.8558" rx="1.11207" ry="1.23725" fill="#D9D9D9"/>
<ellipse cx="97.0613" cy="62.8558" rx="1.11207" ry="1.23725" fill="url(#paint41_linear_1681_24158)"/>
<ellipse cx="88.1707" cy="55.4324" rx="1.11207" ry="1.23725" fill="#D9D9D9"/>
<ellipse cx="88.1707" cy="55.4324" rx="1.11207" ry="1.23725" fill="url(#paint42_linear_1681_24158)"/>
<ellipse cx="78.8269" cy="55.4324" rx="1.11207" ry="1.23725" fill="#D9D9D9"/>
<ellipse cx="78.8269" cy="55.4324" rx="1.11207" ry="1.23725" fill="url(#paint43_linear_1681_24158)"/>
<ellipse cx="82.8308" cy="66.8151" rx="1.11207" ry="1.23725" fill="#D9D9D9"/>
<ellipse cx="82.8308" cy="66.8151" rx="1.11207" ry="1.23725" fill="url(#paint44_linear_1681_24158)"/>
<ellipse cx="116.639" cy="61.3712" rx="1.11207" ry="1.23725" fill="#D9D9D9"/>
<ellipse cx="116.639" cy="61.3712" rx="1.11207" ry="1.23725" fill="url(#paint45_linear_1681_24158)"/>
<ellipse cx="84.6082" cy="31.6772" rx="1.11207" ry="1.23725" fill="#D9D9D9"/>
<ellipse cx="84.6082" cy="31.6772" rx="1.11207" ry="1.23725" fill="url(#paint46_linear_1681_24158)"/>
<ellipse cx="82.3894" cy="35.6365" rx="1.11207" ry="1.23725" fill="#D9D9D9"/>
<ellipse cx="82.3894" cy="35.6365" rx="1.11207" ry="1.23725" fill="url(#paint47_linear_1681_24158)"/>
<ellipse cx="79.2722" cy="38.111" rx="1.11207" ry="1.23725" fill="#D9D9D9"/>
<ellipse cx="79.2722" cy="38.111" rx="1.11207" ry="1.23725" fill="url(#paint48_linear_1681_24158)"/>
<ellipse cx="84.6082" cy="43.06" rx="1.11207" ry="1.23725" fill="#D9D9D9"/>
<ellipse cx="84.6082" cy="43.06" rx="1.11207" ry="1.23725" fill="url(#paint49_linear_1681_24158)"/>
<ellipse cx="96.6238" cy="41.0804" rx="1.11207" ry="1.23725" fill="#D9D9D9"/>
<ellipse cx="96.6238" cy="41.0804" rx="1.11207" ry="1.23725" fill="url(#paint50_linear_1681_24158)"/>
<ellipse cx="103.296" cy="30.1925" rx="1.11207" ry="1.23725" fill="#D9D9D9"/>
<ellipse cx="103.296" cy="30.1925" rx="1.11207" ry="1.23725" fill="url(#paint51_linear_1681_24158)"/>
<ellipse cx="93.5105" cy="27.2231" rx="1.11207" ry="1.23725" fill="#D9D9D9"/>
<ellipse cx="93.5105" cy="27.2231" rx="1.11207" ry="1.23725" fill="url(#paint52_linear_1681_24158)"/>
<ellipse cx="72.6003" cy="42.5651" rx="1.11207" ry="1.23725" fill="#D9D9D9"/>
<ellipse cx="72.6003" cy="42.5651" rx="1.11207" ry="1.23725" fill="url(#paint53_linear_1681_24158)"/>
<ellipse cx="68.5964" cy="42.0702" rx="1.11207" ry="1.23725" fill="#D9D9D9"/>
<ellipse cx="68.5964" cy="42.0702" rx="1.11207" ry="1.23725" fill="url(#paint54_linear_1681_24158)"/>
<ellipse cx="66.3738" cy="46.5242" rx="1.11207" ry="1.23725" fill="#D9D9D9"/>
<ellipse cx="66.3738" cy="46.5242" rx="1.11207" ry="1.23725" fill="url(#paint55_linear_1681_24158)"/>
<ellipse cx="65.0378" cy="42.0702" rx="1.11207" ry="1.23725" fill="#D9D9D9"/>
<ellipse cx="65.0378" cy="42.0702" rx="1.11207" ry="1.23725" fill="url(#paint56_linear_1681_24158)"/>
<defs>
<linearGradient id="paint0_linear_1681_24158" x1="75" y1="3" x2="75" y2="146.25" gradientUnits="userSpaceOnUse">
<stop stop-color="#808080"/>
<stop offset="1" stop-color="#141414"/>
</linearGradient>
<linearGradient id="paint1_linear_1681_24158" x1="75" y1="3" x2="75" y2="146.25" gradientUnits="userSpaceOnUse">
<stop stop-color="#808080"/>
<stop offset="1" stop-color="#141414"/>
</linearGradient>
<linearGradient id="paint2_linear_1681_24158" x1="77.2007" y1="46.946" x2="77.2007" y2="55.5826" gradientUnits="userSpaceOnUse">
<stop stop-color="#333333"/>
<stop offset="1" stop-color="#1A1A1A"/>
</linearGradient>
<linearGradient id="paint3_linear_1681_24158" x1="104.993" y1="20.4615" x2="104.993" y2="87.0688" gradientUnits="userSpaceOnUse">
<stop stop-color="#333333"/>
<stop offset="1" stop-color="#1A1A1A"/>
</linearGradient>
<linearGradient id="paint4_linear_1681_24158" x1="81.3526" y1="18.9031" x2="81.3526" y2="46.946" gradientUnits="userSpaceOnUse">
<stop stop-color="#333333"/>
<stop offset="1" stop-color="#1A1A1A"/>
</linearGradient>
<linearGradient id="paint5_linear_1681_24158" x1="84.4199" y1="18.9852" x2="84.4199" y2="35.7126" gradientUnits="userSpaceOnUse">
<stop stop-color="#333333"/>
<stop offset="1" stop-color="#1A1A1A"/>
</linearGradient>
<linearGradient id="paint6_linear_1681_24158" x1="60.6076" y1="18.9004" x2="60.6076" y2="40.714" gradientUnits="userSpaceOnUse">
<stop stop-color="#333333"/>
<stop offset="1" stop-color="#1A1A1A"/>
</linearGradient>
<linearGradient id="paint7_linear_1681_24158" x1="79.6063" y1="16.7714" x2="79.6063" y2="91.5512" gradientUnits="userSpaceOnUse">
<stop stop-color="#333333"/>
<stop offset="1" stop-color="#1A1A1A"/>
</linearGradient>
<linearGradient id="paint8_linear_1681_24158" x1="101.373" y1="61.0489" x2="101.373" y2="71.1069" gradientUnits="userSpaceOnUse">
<stop stop-color="#333333"/>
<stop offset="1" stop-color="#1A1A1A"/>
</linearGradient>
<linearGradient id="paint9_linear_1681_24158" x1="111.06" y1="38.0905" x2="111.06" y2="78.1861" gradientUnits="userSpaceOnUse">
<stop stop-color="#333333"/>
<stop offset="1" stop-color="#1A1A1A"/>
</linearGradient>
<linearGradient id="paint10_linear_1681_24158" x1="122.159" y1="57.3865" x2="122.159" y2="61.213" gradientUnits="userSpaceOnUse">
<stop stop-color="#333333"/>
<stop offset="1" stop-color="#1A1A1A"/>
</linearGradient>
<linearGradient id="paint11_linear_1681_24158" x1="111.616" y1="30.2186" x2="111.616" y2="76.1088" gradientUnits="userSpaceOnUse">
<stop stop-color="#333333"/>
<stop offset="1" stop-color="#1A1A1A"/>
</linearGradient>
<linearGradient id="paint12_linear_1681_24158" x1="124.168" y1="45.5522" x2="124.168" y2="57.3865" gradientUnits="userSpaceOnUse">
<stop stop-color="#333333"/>
<stop offset="1" stop-color="#1A1A1A"/>
</linearGradient>
<linearGradient id="paint13_linear_1681_24158" x1="78.5522" y1="18.9031" x2="78.5522" y2="71.1347" gradientUnits="userSpaceOnUse">
<stop stop-color="#333333"/>
<stop offset="1" stop-color="#1A1A1A"/>
</linearGradient>
<linearGradient id="paint14_linear_1681_24158" x1="64.1869" y1="40.7139" x2="64.1869" y2="43.2287" gradientUnits="userSpaceOnUse">
<stop stop-color="#333333"/>
<stop offset="1" stop-color="#1A1A1A"/>
</linearGradient>
<linearGradient id="paint15_linear_1681_24158" x1="114.537" y1="50.991" x2="114.537" y2="61.2131" gradientUnits="userSpaceOnUse">
<stop stop-color="#333333"/>
<stop offset="1" stop-color="#1A1A1A"/>
</linearGradient>
<linearGradient id="paint16_linear_1681_24158" x1="106.924" y1="16.7714" x2="106.924" y2="20.4615" gradientUnits="userSpaceOnUse">
<stop stop-color="#333333"/>
<stop offset="1" stop-color="#1A1A1A"/>
</linearGradient>
<linearGradient id="paint17_linear_1681_24158" x1="120.061" y1="38.0905" x2="120.061" y2="45.5522" gradientUnits="userSpaceOnUse">
<stop stop-color="#333333"/>
<stop offset="1" stop-color="#1A1A1A"/>
</linearGradient>
<linearGradient id="paint18_linear_1681_24158" x1="62.8113" y1="30.9349" x2="62.8113" y2="33.4094" gradientUnits="userSpaceOnUse">
<stop stop-color="#817DE8"/>
<stop offset="1" stop-color="#452E8A"/>
</linearGradient>
<linearGradient id="paint19_linear_1681_24158" x1="44.1316" y1="39.3482" x2="44.1316" y2="41.8226" gradientUnits="userSpaceOnUse">
<stop stop-color="#817DE8"/>
<stop offset="1" stop-color="#452E8A"/>
</linearGradient>
<linearGradient id="paint20_linear_1681_24158" x1="60.1433" y1="17.5727" x2="60.1433" y2="20.0472" gradientUnits="userSpaceOnUse">
<stop stop-color="#817DE8"/>
<stop offset="1" stop-color="#452E8A"/>
</linearGradient>
<linearGradient id="paint21_linear_1681_24158" x1="70.3738" y1="27.9655" x2="70.3738" y2="30.44" gradientUnits="userSpaceOnUse">
<stop stop-color="#817DE8"/>
<stop offset="1" stop-color="#452E8A"/>
</linearGradient>
<linearGradient id="paint22_linear_1681_24158" x1="77.4988" y1="24.5012" x2="77.4988" y2="26.9756" gradientUnits="userSpaceOnUse">
<stop stop-color="#817DE8"/>
<stop offset="1" stop-color="#452E8A"/>
</linearGradient>
<linearGradient id="paint23_linear_1681_24158" x1="91.7293" y1="17.5727" x2="91.7293" y2="20.0472" gradientUnits="userSpaceOnUse">
<stop stop-color="#817DE8"/>
<stop offset="1" stop-color="#452E8A"/>
</linearGradient>
<linearGradient id="paint24_linear_1681_24158" x1="103.737" y1="15.5931" x2="103.737" y2="18.0676" gradientUnits="userSpaceOnUse">
<stop stop-color="#817DE8"/>
<stop offset="1" stop-color="#452E8A"/>
</linearGradient>
<linearGradient id="paint25_linear_1681_24158" x1="107.741" y1="23.0165" x2="107.741" y2="25.491" gradientUnits="userSpaceOnUse">
<stop stop-color="#817DE8"/>
<stop offset="1" stop-color="#452E8A"/>
</linearGradient>
<linearGradient id="paint26_linear_1681_24158" x1="110.409" y1="19.0574" x2="110.409" y2="21.5319" gradientUnits="userSpaceOnUse">
<stop stop-color="#817DE8"/>
<stop offset="1" stop-color="#452E8A"/>
</linearGradient>
<linearGradient id="paint27_linear_1681_24158" x1="115.303" y1="36.8737" x2="115.303" y2="39.3482" gradientUnits="userSpaceOnUse">
<stop stop-color="#817DE8"/>
<stop offset="1" stop-color="#452E8A"/>
</linearGradient>
<linearGradient id="paint28_linear_1681_24158" x1="104.186" y1="38.8533" x2="104.186" y2="41.3278" gradientUnits="userSpaceOnUse">
<stop stop-color="#817DE8"/>
<stop offset="1" stop-color="#452E8A"/>
</linearGradient>
<linearGradient id="paint29_linear_1681_24158" x1="104.624" y1="44.7921" x2="104.624" y2="47.2666" gradientUnits="userSpaceOnUse">
<stop stop-color="#817DE8"/>
<stop offset="1" stop-color="#452E8A"/>
</linearGradient>
<linearGradient id="paint30_linear_1681_24158" x1="112.636" y1="49.741" x2="112.636" y2="52.2155" gradientUnits="userSpaceOnUse">
<stop stop-color="#817DE8"/>
<stop offset="1" stop-color="#452E8A"/>
</linearGradient>
<linearGradient id="paint31_linear_1681_24158" x1="124.643" y1="44.2971" x2="124.643" y2="46.7716" gradientUnits="userSpaceOnUse">
<stop stop-color="#817DE8"/>
<stop offset="1" stop-color="#452E8A"/>
</linearGradient>
<linearGradient id="paint32_linear_1681_24158" x1="123.753" y1="56.1747" x2="123.753" y2="58.6492" gradientUnits="userSpaceOnUse">
<stop stop-color="#817DE8"/>
<stop offset="1" stop-color="#452E8A"/>
</linearGradient>
<linearGradient id="paint33_linear_1681_24158" x1="127.761" y1="58.6492" x2="127.761" y2="61.1237" gradientUnits="userSpaceOnUse">
<stop stop-color="#817DE8"/>
<stop offset="1" stop-color="#452E8A"/>
</linearGradient>
<linearGradient id="paint34_linear_1681_24158" x1="127.311" y1="64.093" x2="127.311" y2="66.5675" gradientUnits="userSpaceOnUse">
<stop stop-color="#817DE8"/>
<stop offset="1" stop-color="#452E8A"/>
</linearGradient>
<linearGradient id="paint35_linear_1681_24158" x1="114.417" y1="68.5472" x2="114.417" y2="71.0217" gradientUnits="userSpaceOnUse">
<stop stop-color="#817DE8"/>
<stop offset="1" stop-color="#452E8A"/>
</linearGradient>
<linearGradient id="paint36_linear_1681_24158" x1="119.749" y1="74.9809" x2="119.749" y2="77.4554" gradientUnits="userSpaceOnUse">
<stop stop-color="#817DE8"/>
<stop offset="1" stop-color="#452E8A"/>
</linearGradient>
<linearGradient id="paint37_linear_1681_24158" x1="112.19" y1="85.8686" x2="112.19" y2="88.3431" gradientUnits="userSpaceOnUse">
<stop stop-color="#817DE8"/>
<stop offset="1" stop-color="#452E8A"/>
</linearGradient>
<linearGradient id="paint38_linear_1681_24158" x1="103.296" y1="77.4553" x2="103.296" y2="79.9298" gradientUnits="userSpaceOnUse">
<stop stop-color="#817DE8"/>
<stop offset="1" stop-color="#452E8A"/>
</linearGradient>
<linearGradient id="paint39_linear_1681_24158" x1="97.5144" y1="70.0319" x2="97.5144" y2="72.5064" gradientUnits="userSpaceOnUse">
<stop stop-color="#817DE8"/>
<stop offset="1" stop-color="#452E8A"/>
</linearGradient>
<linearGradient id="paint40_linear_1681_24158" x1="105.514" y1="60.1339" x2="105.514" y2="62.6084" gradientUnits="userSpaceOnUse">
<stop stop-color="#817DE8"/>
<stop offset="1" stop-color="#452E8A"/>
</linearGradient>
<linearGradient id="paint41_linear_1681_24158" x1="97.0613" y1="61.6186" x2="97.0613" y2="64.0931" gradientUnits="userSpaceOnUse">
<stop stop-color="#817DE8"/>
<stop offset="1" stop-color="#452E8A"/>
</linearGradient>
<linearGradient id="paint42_linear_1681_24158" x1="88.1707" y1="54.1952" x2="88.1707" y2="56.6697" gradientUnits="userSpaceOnUse">
<stop stop-color="#817DE8"/>
<stop offset="1" stop-color="#452E8A"/>
</linearGradient>
<linearGradient id="paint43_linear_1681_24158" x1="78.8269" y1="54.1951" x2="78.8269" y2="56.6696" gradientUnits="userSpaceOnUse">
<stop stop-color="#817DE8"/>
<stop offset="1" stop-color="#452E8A"/>
</linearGradient>
<linearGradient id="paint44_linear_1681_24158" x1="82.8308" y1="65.5778" x2="82.8308" y2="68.0523" gradientUnits="userSpaceOnUse">
<stop stop-color="#817DE8"/>
<stop offset="1" stop-color="#452E8A"/>
</linearGradient>
<linearGradient id="paint45_linear_1681_24158" x1="116.639" y1="60.1339" x2="116.639" y2="62.6084" gradientUnits="userSpaceOnUse">
<stop stop-color="#817DE8"/>
<stop offset="1" stop-color="#452E8A"/>
</linearGradient>
<linearGradient id="paint46_linear_1681_24158" x1="84.6082" y1="30.44" x2="84.6082" y2="32.9145" gradientUnits="userSpaceOnUse">
<stop stop-color="#817DE8"/>
<stop offset="1" stop-color="#452E8A"/>
</linearGradient>
<linearGradient id="paint47_linear_1681_24158" x1="82.3894" y1="34.3992" x2="82.3894" y2="36.8737" gradientUnits="userSpaceOnUse">
<stop stop-color="#817DE8"/>
<stop offset="1" stop-color="#452E8A"/>
</linearGradient>
<linearGradient id="paint48_linear_1681_24158" x1="79.2722" y1="36.8737" x2="79.2722" y2="39.3482" gradientUnits="userSpaceOnUse">
<stop stop-color="#817DE8"/>
<stop offset="1" stop-color="#452E8A"/>
</linearGradient>
<linearGradient id="paint49_linear_1681_24158" x1="84.6082" y1="41.8227" x2="84.6082" y2="44.2972" gradientUnits="userSpaceOnUse">
<stop stop-color="#817DE8"/>
<stop offset="1" stop-color="#452E8A"/>
</linearGradient>
<linearGradient id="paint50_linear_1681_24158" x1="96.6238" y1="39.8431" x2="96.6238" y2="42.3176" gradientUnits="userSpaceOnUse">
<stop stop-color="#817DE8"/>
<stop offset="1" stop-color="#452E8A"/>
</linearGradient>
<linearGradient id="paint51_linear_1681_24158" x1="103.296" y1="28.9553" x2="103.296" y2="31.4298" gradientUnits="userSpaceOnUse">
<stop stop-color="#817DE8"/>
<stop offset="1" stop-color="#452E8A"/>
</linearGradient>
<linearGradient id="paint52_linear_1681_24158" x1="93.5105" y1="25.9859" x2="93.5105" y2="28.4604" gradientUnits="userSpaceOnUse">
<stop stop-color="#817DE8"/>
<stop offset="1" stop-color="#452E8A"/>
</linearGradient>
<linearGradient id="paint53_linear_1681_24158" x1="72.6003" y1="41.3278" x2="72.6003" y2="43.8023" gradientUnits="userSpaceOnUse">
<stop stop-color="#817DE8"/>
<stop offset="1" stop-color="#452E8A"/>
</linearGradient>
<linearGradient id="paint54_linear_1681_24158" x1="68.5964" y1="40.8329" x2="68.5964" y2="43.3074" gradientUnits="userSpaceOnUse">
<stop stop-color="#817DE8"/>
<stop offset="1" stop-color="#452E8A"/>
</linearGradient>
<linearGradient id="paint55_linear_1681_24158" x1="66.3738" y1="45.2869" x2="66.3738" y2="47.7614" gradientUnits="userSpaceOnUse">
<stop stop-color="#817DE8"/>
<stop offset="1" stop-color="#452E8A"/>
</linearGradient>
<linearGradient id="paint56_linear_1681_24158" x1="65.0379" y1="40.8329" x2="65.0379" y2="43.3074" gradientUnits="userSpaceOnUse">
<stop stop-color="#817DE8"/>
<stop offset="1" stop-color="#452E8A"/>
</linearGradient>
</defs>
</svg>
