<svg width="150" height="150" viewBox="0 0 150 150" fill="none" xmlns="http://www.w3.org/2000/svg">
<path d="M134.999 31H15V118.635H134.999V31Z" stroke="url(#paint0_linear_1947_2707)" stroke-width="0.6"/>
<path d="M134.999 31H15V118.635H134.999V31Z" stroke="url(#paint1_linear_1947_2707)" stroke-width="0.6"/>
<rect x="23.2141" y="39.3" width="23.4" height="23.4" stroke="black" stroke-width="0.6"/>
<rect x="23.2141" y="39.3" width="23.4" height="23.4" stroke="url(#paint2_linear_1947_2707)" stroke-width="0.6"/>
<rect x="23.2141" y="67.3" width="103.4" height="44.4" stroke="black" stroke-width="0.6"/>
<rect x="23.2141" y="67.3" width="103.4" height="44.4" stroke="url(#paint3_linear_1947_2707)" stroke-width="0.6"/>
<rect x="51.2141" y="39.3" width="47.4" height="23.4" stroke="url(#paint4_linear_1947_2707)" stroke-width="0.6"/>
<rect x="103.214" y="39.3" width="23.4" height="23.4" stroke="black" stroke-width="0.6"/>
<rect x="103.214" y="39.3" width="23.4" height="23.4" stroke="url(#paint5_linear_1947_2707)" stroke-width="0.6"/>
<defs>
<linearGradient id="paint0_linear_1947_2707" x1="74.9996" y1="30.8945" x2="74.9996" y2="118.74" gradientUnits="userSpaceOnUse">
<stop stop-color="white"/>
<stop offset="0.8" stop-color="#0A0A0A"/>
</linearGradient>
<linearGradient id="paint1_linear_1947_2707" x1="74.9996" y1="31" x2="74.9996" y2="118.635" gradientUnits="userSpaceOnUse">
<stop stop-color="#808080"/>
<stop offset="1" stop-color="#141414"/>
</linearGradient>
<linearGradient id="paint2_linear_1947_2707" x1="34.9141" y1="39" x2="34.9141" y2="63" gradientUnits="userSpaceOnUse">
<stop stop-color="#808080"/>
<stop offset="1" stop-color="#141414"/>
</linearGradient>
<linearGradient id="paint3_linear_1947_2707" x1="74.9141" y1="67" x2="74.9141" y2="112" gradientUnits="userSpaceOnUse">
<stop stop-color="#808080"/>
<stop offset="1" stop-color="#141414"/>
</linearGradient>
<linearGradient id="paint4_linear_1947_2707" x1="74.9141" y1="39" x2="74.9141" y2="63" gradientUnits="userSpaceOnUse">
<stop stop-color="#808080"/>
<stop offset="1" stop-color="#141414"/>
</linearGradient>
<linearGradient id="paint5_linear_1947_2707" x1="114.914" y1="39" x2="114.914" y2="63" gradientUnits="userSpaceOnUse">
<stop stop-color="#808080"/>
<stop offset="1" stop-color="#141414"/>
</linearGradient>
</defs>
</svg>
