<svg width="63" height="48" viewBox="0 0 63 48" fill="none" xmlns="http://www.w3.org/2000/svg">
<path d="M40.5809 1.38607L40.4583 1.26323L40.3358 1.38626L37.8757 3.85849L37.754 3.98072L37.8758 4.10276L58.6675 24.9293L41.6779 41.9415L41.6778 41.9416C39.9127 43.7103 37.0639 43.7092 35.303 41.9424L35.3029 41.9423L18.312 24.9288L28.5131 14.6943L28.6348 14.5722L28.5131 14.4501L26.0509 11.9798L25.9284 11.8569L25.8058 11.9798L15.0271 22.7939C13.8357 23.9892 13.8427 25.8682 15.0224 27.0601L15.025 27.0628L15.0256 27.0635L32.5959 44.6571L32.5961 44.6572L32.597 44.6582C35.854 47.9245 41.1249 47.9229 44.3834 44.6578C44.3834 44.6578 44.3834 44.6578 44.3834 44.6578L61.977 27.0408L61.9771 27.0409L61.9819 27.0356L62.0063 27.0092L62.0063 27.0091C63.092 25.8284 63.0857 24.0318 62.0108 22.8546L61.8831 22.9713L62.0108 22.8546L61.9846 22.8259L61.9847 22.8258L61.9793 22.8203L40.5809 1.38607Z" fill="#4D3399" stroke="#4D3399" stroke-width="0.346021" stroke-miterlimit="10"/>
<path d="M30.5495 3.27691L30.5493 3.27674C27.2925 0.0100165 22.0211 0.0118416 18.7624 3.27654C18.7624 3.27655 18.7624 3.27656 18.7624 3.27658L1.16881 20.8904L1.16871 20.8903L1.16387 20.8956L1.13947 20.9221L1.26682 21.0392L1.13946 20.9221C0.0537449 22.1029 0.0600939 23.8995 1.13494 25.0766L1.2627 24.96L1.13494 25.0766L1.16115 25.1053L1.16103 25.1055L1.16647 25.1109L22.5649 46.5452L22.6875 46.668L22.8099 46.545L25.2701 44.0728L25.3918 43.9505L25.2699 43.8285L4.4783 23.002L21.4679 5.99284L21.4679 5.99279C23.2331 4.22403 26.0818 4.22522 27.8428 5.99195L27.8429 5.99209L44.8368 23.0025L34.6358 33.2369L34.5141 33.3591L34.6358 33.4812L37.098 35.9514L37.2205 36.0744L37.3431 35.9514L48.1218 25.1373C49.3131 23.9421 49.3062 22.063 48.1265 20.8711L48.1237 20.8683L48.1231 20.8677L30.5502 3.2776L30.5499 3.27729L30.5495 3.27691Z" fill="#928FEB" stroke="#928FEB" stroke-width="0.346021" stroke-miterlimit="10"/>
</svg>
